<svg width="193.11" height="193.11" viewBox="0 0 5368.93 5368.93" xmlns="http://www.w3.org/2000/svg" xmlns:xlink="http://www.w3.org/1999/xlink" fill-rule="evenodd" clip-rule="evenodd" overflow="hidden"><defs></defs><g id="Layer_x0020_1"><path d="M1686.18 10.51 3682.75 10.51C4604.38 10.51 5358.42 764.56 5358.42 1686.18L5358.42 3682.75C5358.42 4604.38 4604.37 5358.42 3682.75 5358.42L1686.18 5358.42C764.55 5358.42 10.51 4604.37 10.51 3682.75L10.51 1686.18C10.51 764.55 764.56 10.51 1686.18 10.51ZM4173.03 892.84C4340.4 892.84 4476.08 1028.51 4476.08 1195.88 4476.08 1363.25 4340.4 1498.92 4173.03 1498.92 4005.66 1498.92 3869.99 1363.25 3869.99 1195.88 3869.99 1028.51 4005.66 892.84 4173.03 892.84ZM2684.46 1297.21C3067.51 1297.21 3414.35 1452.49 3665.38 1703.54 3916.44 1954.58 4071.71 2301.42 4071.71 2684.46 4071.71 3067.51 3916.43 3414.35 3665.38 3665.38 3414.34 3916.44 3067.5 4071.71 2684.46 4071.71 2301.41 4071.71 1954.57 3916.43 1703.54 3665.38 1452.48 3414.34 1297.21 3067.5 1297.21 2684.46 1297.21 2301.41 1452.49 1954.57 1703.54 1703.54 1954.58 1452.48 2301.42 1297.21 2684.46 1297.21ZM3349.71 2019.22C3179.48 1848.99 2944.27 1743.68 2684.46 1743.68 2424.65 1743.68 2189.44 1848.99 2019.21 2019.22 1848.98 2189.45 1743.67 2424.66 1743.67 2684.47 1743.67 2944.28 1848.98 3179.49 2019.21 3349.72 2189.44 3519.95 2424.65 3625.26 2684.46 3625.26 2944.27 3625.26 3179.48 3519.95 3349.71 3349.72 3519.94 3179.49 3625.25 2944.28 3625.25 2684.47 3625.25 2424.66 3519.94 2189.45 3349.71 2019.22Z" stroke-width="21.017" stroke-miterlimit="22.9256" fill="#BFBFBF"/></g></svg>