<svg width="23" height="23" xmlns="http://www.w3.org/2000/svg" xmlns:xlink="http://www.w3.org/1999/xlink" overflow="hidden"><defs><clipPath id="clip0"><path d="M968 80 991 80 991 103 968 103Z" fill-rule="evenodd" clip-rule="evenodd"/></clipPath><clipPath id="clip1"><path d="M973 85 986 85 986 97 973 97Z" fill-rule="evenodd" clip-rule="evenodd"/></clipPath><clipPath id="clip2"><path d="M973 85 986 85 986 97 973 97Z" fill-rule="evenodd" clip-rule="evenodd"/></clipPath><clipPath id="clip3"><path d="M973 85 986 85 986 97 973 97Z" fill-rule="evenodd" clip-rule="evenodd"/></clipPath></defs><g clip-path="url(#clip0)" transform="translate(-968 -80)"><path d="M969 84.9245C969 82.2048 971.205 80 973.924 80L986.076 80C988.795 80 991 82.2048 991 84.9245L991 97.0755C991 99.7952 988.795 102 986.076 102L973.924 102C971.205 102 969 99.7952 969 97.0755Z" fill="#BFBFBF" fill-rule="evenodd"/><g clip-path="url(#clip1)"><g clip-path="url(#clip2)"><g clip-path="url(#clip3)"><path d="M0.21196 5.7858 2.977 6.8178 4.04724 10.2597C4.11572 10.4801 4.38528 10.5616 4.5642 10.4153L6.10548 9.15884C6.26704 9.0272 6.49716 9.02064 6.666 9.1432L9.44592 11.1615C9.63732 11.3006 9.90848 11.1957 9.95648 10.9644L11.9929 1.1688C12.0453 0.91616 11.7971 0.7054 11.5565 0.79844L0.20872 5.17608C-0.07132 5.28408-0.06888 5.68056 0.21196 5.7858ZM3.87476 6.26844 9.27868 2.94016C9.3758 2.88052 9.47572 3.01184 9.39232 3.0892L4.93252 7.2348C4.77576 7.38072 4.67464 7.576 4.646 7.78796L4.49408 8.9138C4.47396 9.06412 4.2628 9.07904 4.22132 8.93356L3.63704 6.88056C3.57012 6.6464 3.66764 6.39628 3.87476 6.26844Z" fill="#FFFFFF" transform="matrix(1.08333 0 -0 1 973 85)"/></g></g></g></g></svg>