<svg width="23" height="23" xmlns="http://www.w3.org/2000/svg" xmlns:xlink="http://www.w3.org/1999/xlink" overflow="hidden"><defs><clipPath id="clip0"><path d="M996 53 1019 53 1019 76 996 76Z" fill-rule="evenodd" clip-rule="evenodd"/></clipPath><clipPath id="clip1"><path d="M1000 61 1014 61 1014 69 1000 69Z" fill-rule="evenodd" clip-rule="evenodd"/></clipPath><clipPath id="clip2"><path d="M1000 61 1014 61 1014 69 1000 69Z" fill-rule="evenodd" clip-rule="evenodd"/></clipPath><clipPath id="clip3"><path d="M1000 61 1014 61 1014 69 1000 69Z" fill-rule="evenodd" clip-rule="evenodd"/></clipPath></defs><g clip-path="url(#clip0)" transform="translate(-996 -53)"><path d="M996 58.7006C996 56.1046 998.105 54 1000.7 54L1013.3 54C1015.9 54 1018 56.1046 1018 58.7006L1018 70.2993C1018 72.8954 1015.9 75 1013.3 75L1000.7 75C998.105 75 996 72.8954 996 70.2993Z" fill="#BFBFBF" fill-rule="evenodd"/><g clip-path="url(#clip1)"><g clip-path="url(#clip2)"><g clip-path="url(#clip3)"><path d="M13.1246 0.555152C13.2242 0.241974 13.1246 0.0142083 12.6833 0.0142083L11.2171 0.0142083C10.847 0.0142083 10.6762 0.213503 10.5766 0.427007 10.5766 0.427007 9.82213 2.24908 8.76876 3.43053 8.42711 3.77218 8.27055 3.88606 8.08547 3.88606 7.98585 3.88606 7.8577 3.77218 7.8577 3.459L7.8577 0.540835C7.8577 0.170716 7.74382-0.000108048 7.43064-0.000108048L5.12457-0.000108048C4.8968-0.000108048 4.75445 0.170716 4.75445 0.341541 4.75445 0.697397 5.28113 0.782809 5.33807 1.77928L5.33807 3.943C5.33807 4.41274 5.25266 4.49816 5.06763 4.49816 4.56941 4.49816 3.35944 2.66188 2.63346 0.56936 2.49111 0.156562 2.34875-5.40241e-05 1.97863-5.40241e-05L0.49821-5.40241e-05C0.0711498-5.40241e-05 1.38191e-15 0.199241 1.38191e-15 0.412744 1.38191e-15 0.797072 0.49821 2.73303 2.32028 5.29528 3.53026 7.04615 5.25266 7.98568 6.80428 7.98568 7.74376 7.98568 7.85765 7.77218 7.85765 7.41627L7.85765 6.09241C7.85765 5.66535 7.94306 5.5942 8.24197 5.5942 8.45548 5.5942 8.83986 5.70808 9.70813 6.54794 10.7046 7.54436 10.8754 7.99989 11.4306 7.99989L12.8968 7.99989C13.3239 7.99989 13.5232 7.78639 13.4093 7.37354 13.2811 6.96074 12.7972 6.36285 12.1708 5.65109 11.8292 5.2525 11.3168 4.81123 11.1601 4.59772 10.9466 4.31302 11.0036 4.19913 11.1601 3.9429 11.1459 3.9429 12.9395 1.40911 13.1245 0.555044Z" fill="#FFFFFF" fill-rule="evenodd" transform="matrix(1.04072 0 -0 1 1000.01 61)"/></g></g></g></g></svg>